<svg width="141" height="74" viewBox="0 0 141 74" fill="none" xmlns="http://www.w3.org/2000/svg">
<g clip-path="url(#clip0)">
<path d="M34.3293 11.8024L36.5021 41.6974L65.7871 21.0819L34.3293 11.8024Z" fill="url(#paint0_linear)"/>
<path d="M46.942 1.764L34.3293 11.8025L65.7532 21.0781L46.942 1.764Z" fill="url(#paint1_linear)"/>
<path d="M36.5021 41.6975L65.7682 21.097L23.4239 22.0574L36.5021 41.6975Z" fill="url(#paint2_linear)"/>
<path d="M23.4239 22.0573L65.8548 21.0898L5.97949 46.4557L23.4239 22.0573Z" fill="url(#paint3_linear)"/>
<path d="M115.125 37.1344L86.5453 62.1294L134.624 73.9298L115.125 37.1344Z" fill="url(#paint4_linear)"/>
<path d="M137.018 41.3266L115.125 37.1344L134.596 73.8949L137.018 41.3266Z" fill="url(#paint5_linear)"/>
<path d="M86.5452 62.1293L134.591 73.9234L94.5837 34.7186L86.5452 62.1293Z" fill="url(#paint6_linear)"/>
<path d="M94.5832 34.7185L134.677 73.9996L53.5474 36.9906L94.5832 34.7185Z" fill="url(#paint7_linear)"/>
</g>
<defs>
<linearGradient id="paint0_linear" x1="49.1452" y1="0.0825455" x2="37.7239" y2="43.2808" gradientUnits="userSpaceOnUse">
<stop stop-color="#1E6CFF"/>
<stop offset="1" stop-color="#A9C7FF"/>
</linearGradient>
<linearGradient id="paint1_linear" x1="34.2994" y1="11.7647" x2="65.7682" y2="21.097" gradientUnits="userSpaceOnUse">
<stop stop-color="#1E6CFF"/>
<stop offset="1" stop-color="#A9C7FF"/>
</linearGradient>
<linearGradient id="paint2_linear" x1="49.9524" y1="1.10316" x2="31.563" y2="57.1256" gradientUnits="userSpaceOnUse">
<stop stop-color="#1E6CFF"/>
<stop offset="1" stop-color="#A9C7FF"/>
</linearGradient>
<linearGradient id="paint3_linear" x1="0.818215" y1="39.9698" x2="65.8359" y2="21.1048" gradientUnits="userSpaceOnUse">
<stop stop-color="#1E6CFF"/>
<stop offset="1" stop-color="#A9C7FF"/>
</linearGradient>
<linearGradient id="paint4_linear" x1="140.768" y1="42.1143" x2="89.7883" y2="71.0752" gradientUnits="userSpaceOnUse">
<stop stop-color="#1E6CFF"/>
<stop offset="1" stop-color="#A9C7FF"/>
</linearGradient>
<linearGradient id="paint5_linear" x1="115.136" y1="37.0772" x2="129.695" y2="75.7659" gradientUnits="userSpaceOnUse">
<stop stop-color="#1E6CFF"/>
<stop offset="1" stop-color="#A9C7FF"/>
</linearGradient>
<linearGradient id="paint6_linear" x1="140.468" y1="43.6589" x2="70.4562" y2="77.9738" gradientUnits="userSpaceOnUse">
<stop stop-color="#1E6CFF"/>
<stop offset="1" stop-color="#A9C7FF"/>
</linearGradient>
<linearGradient id="paint7_linear" x1="55.4256" y1="27.1439" x2="129.589" y2="80.9605" gradientUnits="userSpaceOnUse">
<stop stop-color="#1E6CFF"/>
<stop offset="1" stop-color="#A9C7FF"/>
</linearGradient>
<clipPath id="clip0">
<rect width="140.877" height="73.9996" fill="white"/>
</clipPath>
</defs>
</svg>
