<svg width="24" height="23" viewBox="0 0 24 23" fill="none" xmlns="http://www.w3.org/2000/svg">
<path d="M22.7131 18.7166V11.9261C22.7131 10.4547 22.7131 9.71899 22.5197 9.04407C22.3485 8.44632 22.0672 7.88575 21.6904 7.39113C21.265 6.83266 20.6752 6.39282 19.4957 5.51316L16.6624 3.40012C14.9466 2.12054 14.0887 1.48075 13.1473 1.23402C12.3163 1.01622 11.4432 1.01622 10.6121 1.23402C9.6707 1.48075 8.81282 2.12054 7.09707 3.40011L4.26373 5.51316C3.0842 6.39282 2.49444 6.83266 2.069 7.39113C1.6922 7.88575 1.41097 8.44632 1.23973 9.04407C1.04639 9.71899 1.04639 10.4547 1.04639 11.9261V18.7166C1.04639 19.8368 1.04639 20.3968 1.26437 20.8246C1.45612 21.201 1.76208 21.5069 2.13841 21.6987C2.56623 21.9166 3.12628 21.9166 4.24639 21.9166H5.59937C5.86789 21.9166 6.00215 21.9166 6.11508 21.9038C7.04019 21.7983 7.77012 21.0683 7.87561 20.1432C7.88849 20.0303 7.88849 19.896 7.88849 19.6275V16.7514C7.88849 14.5471 9.67543 12.7601 11.8797 12.7601C14.084 12.7601 15.8709 14.5471 15.8709 16.7514V19.6275C15.8709 19.896 15.8709 20.0303 15.8838 20.1432C15.9893 21.0683 16.7192 21.7983 17.6444 21.9038C17.7573 21.9166 17.8915 21.9166 18.1601 21.9166H19.5131C20.6332 21.9166 21.1932 21.9166 21.621 21.6987C21.9974 21.5069 22.3033 21.201 22.4951 20.8246C22.7131 20.3968 22.7131 19.8368 22.7131 18.7166Z" stroke="#2E333A" stroke-width="1.8"/>
</svg>
